<svg width="196" height="45" viewBox="0 0 196 45" fill="none" xmlns="http://www.w3.org/2000/svg">
<path d="M2.664 35V8.72H11.952L17.352 22.58H18.072L23.436 8.72H32.904V35H26.28V12.572L27.324 12.644L20.556 29.708H14.472L7.668 12.644L8.784 12.572V35H2.664ZM65.6371 35.48C64.0051 35.48 62.6291 35.224 61.5091 34.712C60.4051 34.2 59.5651 33.504 58.9891 32.624C58.4291 31.728 58.1491 30.704 58.1491 29.552H62.4691C62.4691 29.968 62.5811 30.352 62.8051 30.704C63.0451 31.04 63.3971 31.304 63.8611 31.496C64.3251 31.688 64.9171 31.784 65.6371 31.784C66.2611 31.784 66.7891 31.704 67.2211 31.544C67.6691 31.384 68.0051 31.16 68.2291 30.872C68.4691 30.584 68.5891 30.24 68.5891 29.84C68.5891 29.328 68.3731 28.936 67.9411 28.664C67.5091 28.376 66.7811 28.192 65.7571 28.112L64.6291 28.016C62.8211 27.856 61.3811 27.288 60.3091 26.312C59.2371 25.336 58.7011 24.04 58.7011 22.424C58.7011 21.272 58.9651 20.288 59.4931 19.472C60.0371 18.656 60.7971 18.032 61.7731 17.6C62.7491 17.168 63.9011 16.952 65.2291 16.952C66.6691 16.952 67.8851 17.192 68.8771 17.672C69.8851 18.152 70.6531 18.832 71.1811 19.712C71.7091 20.576 71.9731 21.584 71.9731 22.736H67.6531C67.6531 22.352 67.5571 22 67.3651 21.68C67.1731 21.36 66.8931 21.112 66.5251 20.936C66.1731 20.744 65.7411 20.648 65.2291 20.648C64.7491 20.648 64.3411 20.728 64.0051 20.888C63.6851 21.032 63.4371 21.24 63.2611 21.512C63.1011 21.784 63.0211 22.088 63.0211 22.424C63.0211 22.872 63.1731 23.256 63.4771 23.576C63.7811 23.896 64.3091 24.088 65.0611 24.152L66.1891 24.248C67.5011 24.36 68.6611 24.648 69.6691 25.112C70.6771 25.56 71.4691 26.176 72.0451 26.96C72.6211 27.744 72.9091 28.704 72.9091 29.84C72.9091 30.976 72.6131 31.968 72.0211 32.816C71.4451 33.664 70.6131 34.32 69.5251 34.784C68.4531 35.248 67.1571 35.48 65.6371 35.48ZM75.2654 35V17.48H79.7294V35H75.2654ZM91.5108 35.48C89.9268 35.48 88.5668 35.208 87.4308 34.664C86.2948 34.104 85.3588 33.376 84.6228 32.48C83.8868 31.568 83.3428 30.584 82.9908 29.528C82.6388 28.472 82.4628 27.448 82.4628 26.456V25.928C82.4628 24.824 82.6388 23.744 82.9908 22.688C83.3588 21.616 83.9108 20.648 84.6468 19.784C85.3988 18.92 86.3348 18.232 87.4548 17.72C88.5748 17.208 89.8868 16.952 91.3908 16.952C92.9908 16.952 94.4068 17.256 95.6388 17.864C96.8868 18.456 97.8868 19.296 98.6388 20.384C99.3908 21.456 99.8308 22.704 99.9588 24.128H95.4948C95.3828 23.52 95.1428 22.992 94.7748 22.544C94.4068 22.096 93.9348 21.752 93.3588 21.512C92.7828 21.256 92.1268 21.128 91.3908 21.128C90.7028 21.128 90.0788 21.248 89.5188 21.488C88.9748 21.728 88.5108 22.072 88.1268 22.52C87.7588 22.952 87.4708 23.48 87.2628 24.104C87.0708 24.728 86.9748 25.432 86.9748 26.216C86.9748 27 87.0708 27.704 87.2628 28.328C87.4708 28.952 87.7668 29.488 88.1508 29.936C88.5508 30.384 89.0308 30.728 89.5908 30.968C90.1508 31.192 90.7908 31.304 91.5108 31.304C92.6308 31.304 93.5748 31.032 94.3428 30.488C95.1268 29.944 95.5988 29.216 95.7588 28.304H100.223C100.079 29.616 99.6388 30.816 98.9028 31.904C98.1668 32.992 97.1748 33.864 95.9268 34.52C94.6788 35.16 93.2068 35.48 91.5108 35.48ZM103.457 35V8.72H110.153V35H103.457ZM109.433 24.812V19.34H119.189V24.812H109.433ZM109.433 14.192V8.72H119.585V14.192H109.433ZM122.714 35V17.336H127.178V35H122.714ZM133.273 35L128.354 27.56H133.202L138.41 35H133.273ZM126.05 29.624V26.192H130.25C130.778 26.192 131.234 26.088 131.618 25.88C132.002 25.672 132.298 25.376 132.506 24.992C132.73 24.608 132.842 24.16 132.842 23.648C132.842 23.12 132.73 22.664 132.506 22.28C132.298 21.896 132.002 21.6 131.618 21.392C131.234 21.184 130.778 21.08 130.25 21.08H126.05V17.336H129.986C131.506 17.336 132.818 17.568 133.922 18.032C135.026 18.48 135.874 19.152 136.466 20.048C137.058 20.928 137.354 22.024 137.354 23.336V23.72C137.354 25.032 137.05 26.128 136.442 27.008C135.85 27.872 135.002 28.528 133.898 28.976C132.81 29.408 131.506 29.624 129.986 29.624H126.05ZM138.895 35L144.511 17.48H151.663L157.471 35H152.863L148.351 20.6L149.623 21.08H146.455L147.751 20.6L143.359 35H138.895ZM143.479 30.944L144.823 27.296H151.471L152.815 30.944H143.479ZM159.44 35V17.48H165.632L169.232 26.72H169.712L173.288 17.48H179.6V35H175.184V20.048L175.88 20.096L171.368 31.472H167.312L162.776 20.096L163.52 20.048V35H159.44ZM183.159 35V17.48H187.479V35H183.159ZM186.999 35V31.352H194.391V35H186.999ZM186.999 27.92V24.272H193.887V27.92H186.999ZM186.999 21.128V17.48H194.247V21.128H186.999Z" fill="white"/>
<path d="M38 35V17L46 29L54 17V35H38Z" fill="#FA4A6F" stroke="#0EB7BE"/>
</svg>
